<?xml version="1.0" encoding="utf-8"?>
<!-- Generator: Adobe Illustrator 25.3.1, SVG Export Plug-In . SVG Version: 6.00 Build 0)  -->
<svg version="1.1" id="Layer_1" xmlns="http://www.w3.org/2000/svg" xmlns:xlink="http://www.w3.org/1999/xlink" x="0px" y="0px"
	 viewBox="0 0 336 30" style="enable-background:new 0 0 336 30;" xml:space="preserve">
<style type="text/css">
	.st0{fill:#273F33;}
</style>
<g>
	<path class="st0" d="M241.1,19.6c0-0.7,0.4-0.9,0.8-0.9c0.7,0,1,0.6,1,1.4l0,0.6l2.3-0.1l0-0.7c-0.1-2.6-1.5-3.4-3.3-3.4
		c-2.3,0-3.4,1.5-3.4,3.4c0,1.9,0.8,2.9,2.2,4.2c1,0.8,1.9,1.6,1.9,2.5c0,0.6-0.3,1-0.8,1c-0.6,0-1.1-0.4-1.2-1.6l0-0.6l-2.3,0.1
		l0.1,1c0.1,2.7,1.8,3.4,3.5,3.4c2.4,0,3.5-1.5,3.5-3.6c0-1.9-1.1-2.9-2.3-4C241.7,20.9,241.1,20.5,241.1,19.6 M233.4,18.8h0.4
		c0.5,0,0.9,0.3,0.9,1.9c0,1.6-0.5,1.9-1,1.9h-0.3V18.8z M237.8,29.6l-1.5-5.9c0.9-0.7,1.4-1.9,1.4-3.3c0-2.4-1.3-3.7-3.4-3.7h-3.8
		v13h2.9v-5.3h0.2l1.2,5.3H237.8z M225.3,27.5c-0.6,0-1-0.7-1-4.4c0-3.7,0.3-4.4,1-4.4c0.6,0,1,0.7,1,4.4
		C226.3,26.8,225.9,27.5,225.3,27.5 M225.3,29.8c2.7,0,4-1.8,4-6.7c0-4.8-1.4-6.7-4-6.7c-2.6,0-4,1.8-4,6.7
		C221.3,28,222.7,29.8,225.3,29.8 M216.3,19.6c0-0.7,0.4-0.9,0.8-0.9c0.7,0,1,0.6,1,1.4l0,0.6l2.3-0.1l0-0.7
		c-0.1-2.6-1.5-3.4-3.3-3.4c-2.3,0-3.4,1.5-3.4,3.4c0,1.9,0.8,2.9,2.2,4.2c1,0.8,1.9,1.6,1.9,2.5c0,0.6-0.3,1-0.8,1
		c-0.6,0-1.1-0.4-1.2-1.6l0-0.6l-2.3,0.1l0.1,1c0.1,2.7,1.8,3.4,3.5,3.4c2.4,0,3.5-1.5,3.5-3.6c0-1.9-1.1-2.9-2.3-4
		C216.8,20.9,216.3,20.5,216.3,19.6 M209.5,29.6h2.9v-13h-2.9V29.6z M203.3,16.6h-3l2,13h4l2.2-13h-2.8l-1.2,10.8L203.3,16.6z
		 M197,23.1c0,3.5-0.5,4.3-1.3,4.3h-0.4v-8.5h0.4C196.5,18.9,197,19.6,197,23.1 M192.3,29.6h3.7c2.6,0,4-2.1,4-6.5
		c0-4.4-1.3-6.5-4-6.5h-3.7V29.6z M186.7,25l0.7-6.2L188,25H186.7z M188.5,29.6h3l-1.9-13h-4.1l-2.1,13h2.8l0.3-2.9h1.7L188.5,29.6z
		"/>
	<path class="st0" d="M228.4,13.4v-2.3h-2V0.4h-2.9v13H228.4z M217.8,8.8l0.7-6.2l0.6,6.2H217.8z M219.7,13.4h3l-1.9-13h-4.1
		l-2.1,13h2.8l0.3-2.9h1.7L219.7,13.4z M209.7,11.1V7.4h0.3c0.7,0,1.2,0.3,1.2,1.8c0,1.6-0.5,1.9-1.2,1.9H209.7z M211.2,4
		c0,1.2-0.4,1.6-1.1,1.6h-0.4v-3h0.3C210.7,2.6,211.2,2.9,211.2,4 M206.8,13.4h3.5c2.6,0,3.9-1.3,3.9-4.1c0-1.3-0.5-2.5-1.8-3.1
		c1.1-0.5,1.7-1.5,1.7-2.7c0-2.1-1.2-3.2-3.8-3.2h-3.5V13.4z M201.7,11.3c-0.6,0-1-0.7-1-4.4c0-3.7,0.3-4.4,1-4.4c0.6,0,1,0.7,1,4.4
		C202.7,10.6,202.3,11.3,201.7,11.3 M201.7,13.6c2.7,0,4-1.8,4-6.7c0-4.8-1.4-6.7-4-6.7c-2.6,0-4,1.8-4,6.7
		C197.7,11.7,199,13.6,201.7,13.6 M197.3,13.4v-2.3h-2V0.4h-2.9v13H197.3z M190.9,4.4l0-0.7c-0.1-2.2-1.3-3.4-3.1-3.4
		c-2.7,0-4.2,2.1-4.2,6.7c0,4.7,1.5,6.7,3.7,6.7c1.1,0,1.8-0.5,2.1-1.1l0.5,0.9h1.1v-7h-3.4V8h0.9v2.5c0,0.7-0.3,0.8-0.8,0.8
		c-0.6,0-1.1-0.8-1.1-4.4c0-3.7,0.4-4.4,1.1-4.4c0.5,0,0.8,0.4,0.9,1.5l0,0.5L190.9,4.4z"/>
	<path class="st0" d="M166.2,29.6h6.6V5.5h3.9V0.4h-14.4v5.1h3.9V29.6z M160.7,29.6v-5.1h-4.9v-8.4h4.1v-3.9h-4.1V5.5h4.9V0.4h-11.5
		v29.2H160.7z M146.9,29.6v-5.1H142v-8.4h4.1v-3.9H142V5.5h4.9V0.4h-11.5v29.2H146.9z M123.5,5.3h0.8c1.1,0,2.1,0.6,2.1,4.4
		c0,3.7-1.2,4.3-2.3,4.3h-0.6V5.3z M133.3,29.6l-3.4-13.3c2-1.5,3.2-4.2,3.2-7.5c0-5.5-3-8.4-7.6-8.4h-8.5v29.2h6.6V17.8h0.5
		l2.6,11.8H133.3z M104.8,29.6h6.6V5.5h3.9V0.4h-14.4v5.1h3.9V29.6z M91,7.2c0-1.5,0.9-2.1,1.8-2.1c1.6,0,2.1,1.4,2.2,3.1l0,1.4
		l5.1-0.3l-0.1-1.6C99.9,1.8,96.8,0,92.8,0c-5.2,0-7.7,3.4-7.7,7.7c0,4.2,1.8,6.5,5,9.4c2.1,1.9,4.4,3.7,4.4,5.6
		c0,1.4-0.6,2.2-1.8,2.2c-1.4,0-2.5-0.9-2.6-3.7l-0.1-1.4L84.6,20l0.1,2.3c0.3,6.1,4.1,7.8,7.9,7.8c5.5,0,7.9-3.3,7.9-8.1
		c0-4.4-2.5-6.5-5.1-9C92.3,10,91,9.2,91,7.2 M76.1,29.6v-5.1h-4.9v-8.4h4.1v-3.9h-4.1V5.5h4.9V0.4H64.6v29.2H76.1z M51.9,29.6h6.6
		V5.5h3.9V0.4H48v5.1h3.9V29.6z M37.6,19.2l1.6-13.9l1.4,13.9H37.6z M41.7,29.6h6.7L44.1,0.4h-9.2l-4.8,29.2h6.3l0.7-6.5h3.9
		L41.7,29.6z M20.2,29.6h6.6V5.5h3.9V0.4H16.3v5.1h3.9V29.6z M6.4,7.2c0-1.5,0.9-2.1,1.8-2.1c1.6,0,2.1,1.4,2.2,3.1l0,1.4l5.1-0.3
		l-0.1-1.6C15.2,1.8,12.2,0,8.1,0C2.9,0,0.4,3.4,0.4,7.7c0,4.2,1.8,6.5,5,9.4c2.1,1.9,4.4,3.7,4.4,5.6c0,1.4-0.6,2.2-1.8,2.2
		c-1.4,0-2.5-0.9-2.6-3.7l-0.1-1.4L0,20l0.1,2.3C0.4,28.4,4.2,30,8.1,30c5.5,0,7.9-3.3,7.9-8.1c0-4.4-2.5-6.5-5.1-9
		C7.6,10,6.4,9.2,6.4,7.2"/>
	<path class="st0" d="M266.6,12.9c2.6,2.5,5.1,4.6,5.1,9c0,4.8-2.4,8.1-7.9,8.1c-3.9,0-7.6-1.6-7.9-7.8l-0.1-2.3l5.3-0.3l0.1,1.4
		c0.2,2.8,1.2,3.7,2.6,3.7c1.2,0,1.8-0.7,1.8-2.2c0-2-2.2-3.8-4.4-5.6c-3.2-2.8-5-5.2-5-9.4c0-4.3,2.5-7.7,7.7-7.7
		c4,0,7.1,1.8,7.4,7.7l0.1,1.6l-5.1,0.3l0-1.4c0-1.8-0.6-3.1-2.2-3.1c-0.9,0-1.8,0.6-1.8,2.1C262.2,9.2,263.4,10,266.6,12.9
		 M318.3,5.3h0.8c1.1,0,2.1,0.6,2.1,4.4c0,3.7-1.2,4.3-2.3,4.3h-0.6V5.3z M328,29.6l-3.4-13.3c2-1.5,3.2-4.2,3.2-7.5
		c0-5.5-3-8.4-7.6-8.4h-8.5v29.2h6.6V17.8h0.5l2.6,11.8H328z M302.8,15c0,8.1-1.1,9.8-3,9.8h-1V5.3h1C301.7,5.3,302.8,6.9,302.8,15
		 M292.2,29.6h8.4c5.9,0,8.9-4.7,8.9-14.6c0-9.9-3-14.6-8.9-14.6h-8.4V29.6z M283.7,10c0,4.1-1.1,4.8-2.1,4.8h-0.9V5.3h0.9
		C282.6,5.3,283.7,6,283.7,10 M282.1,19.6c5.2,0,8.2-3,8.2-9.6c0-6.8-3-9.6-7.7-9.6H274v29.2h6.6v-10H282.1z"/>
	<path class="st0" d="M332.9,2.1h0.3c0.2,0,0.4,0.1,0.4,0.4c0,0.4-0.2,0.4-0.4,0.4h-0.3V2.1z M334.3,4.5l-0.4-0.9l-0.1-0.3
		c0.3-0.1,0.5-0.4,0.5-0.8c0-0.6-0.3-0.9-1-0.9h-1v2.9h0.7V3.4h0.3l0.1,0.4l0.2,0.6H334.3z M333.2,0.8c1.4,0,2.1,1,2.1,2.3
		c0,1.3-0.7,2.3-2.1,2.3c-1.4,0-2.1-1-2.1-2.3C331.1,1.8,331.8,0.8,333.2,0.8 M336,3.2c0-1.6-1.1-2.9-2.7-2.9
		c-1.8,0-2.8,1.3-2.8,2.9c0,1.6,1,2.9,2.8,2.9C334.9,6.1,336,4.8,336,3.2"/>
</g>
</svg>
